<?xml version="1.0" encoding="utf-8"?>
<!-- Generator: Adobe Illustrator 16.0.0, SVG Export Plug-In . SVG Version: 6.00 Build 0)  -->
<!DOCTYPE svg PUBLIC "-//W3C//DTD SVG 1.1//EN" "http://www.w3.org/Graphics/SVG/1.1/DTD/svg11.dtd">
<svg version="1.1" id="Layer_1" xmlns="http://www.w3.org/2000/svg" xmlns:xlink="http://www.w3.org/1999/xlink" x="0px" y="0px"
	 width="100%" height="100%" viewBox="0 0 200 200" enable-background="new 0 0 200 200" xml:space="preserve">
<path fill-rule="evenodd" clip-rule="evenodd" fill="#FFFFFF" d="M93.448,95.268c-6.715,8.958-14.416,15.974-25.456,18.306
	c-15.271,3.229-27.167-2.74-36.87-13.903C22.182,89.383,19.25,77.165,20.633,63.706c0.223-2.175-0.308-4.669-1.236-6.67
	c-2.478-5.335,5.651-18.356,11.649-18.789c21.151-1.527,39.372,5.425,55.583,18.599c6.264,5.087,10.74,11.095,12.277,19.28
	c1.264,6.735,12.862,12.184,19.734,11.209c6.746-0.956,14.496-1.941,20.51,0.406c16.627,6.486,33.494,13.592,40.21,32.667
	c0.156,0.442,0.586,0.793,0.885,1.186c6.672,8.78,6.313,14.977-1.33,22.904c-0.35,0.364-0.67,0.856-1.105,1.019
	c-11.138,4.144-21.996,10.399-33.49,11.95c-31.758,4.281-53.002-22.847-42.243-50.01C104.614,101.042,104.306,100.917,93.448,95.268
	z M32.329,72.516c13.925-3.699,27.101-7.2,40.276-10.701c-4.549-4.273-9.387-7.191-14.592-9.129
	C43.909,47.43,32.337,55.873,32.329,72.516z M84.798,74.57c0.23-1.012,0.459-2.022,0.688-3.031c-2.413-0.734-5.08-2.533-7.195-2.027
	c-13.392,3.203-26.686,6.821-39.937,10.571c-1.707,0.482-2.979,2.498-4.452,3.806c1.99,0.929,4.267,3.021,5.925,2.61
	C54.878,82.77,69.823,78.606,84.798,74.57z"/>
</svg>
