<?xml version="1.0" encoding="utf-8"?>
<!-- Generator: Adobe Illustrator 16.0.0, SVG Export Plug-In . SVG Version: 6.00 Build 0)  -->
<!DOCTYPE svg PUBLIC "-//W3C//DTD SVG 1.1//EN" "http://www.w3.org/Graphics/SVG/1.1/DTD/svg11.dtd">
<svg version="1.1" id="Layer_1" xmlns="http://www.w3.org/2000/svg" xmlns:xlink="http://www.w3.org/1999/xlink" x="0px" y="0px"
	 width="100%" height="100%" viewBox="0 0 200 200" enable-background="new 0 0 200 200" xml:space="preserve">
<g>
	<path fill-rule="evenodd" clip-rule="evenodd" fill="#FFFFFF" d="M179.074,56.129c-15.602-11.045-30.864-7.562-46.005,3.595
		c5.092-18.451,2.917-34.214-13.088-45.301c-11.13-7.708-29.906-7.44-40.583,0.414C64.077,26.108,61.942,41.544,67.266,59.772
		c-15.881-11.308-31.567-14.997-47.442-2.609C7.972,66.412,3.12,82.14,7.147,95.587c4.728,15.782,16.696,23.816,38.72,25.414
		c-13.522,11.151-21.123,23.65-16.301,40.55c4.128,14.471,17.455,25.486,31.771,26.261c20.702,1.119,32.035-11.065,38.877-29.884
		c5.952,17.698,16.126,29.167,34.779,29.951c14.34,0.603,28.344-8.552,33.935-21.91c7.803-18.621-0.021-32.7-14.086-44.836
		c22.599-2.304,33.988-10.163,38.347-26.231C196.973,80.942,191.659,65.039,179.074,56.129z M138.71,106.805
		c0.283,8.684-6.326,11.921-14.527,13.315c0.246,7.935,4.403,18.052-6.248,20.99c-5.182,1.426-11.761-2.204-17.554-4.882
		c-5.779,3.273-11.576,10.038-20.297,4.258c-7.375-4.89-5.147-12.093-3.046-20.185c-8.462-1.065-15.762-3.822-15.947-12.638
		c-0.194-9.214,7.138-12.491,15.482-13.632c-2.213-7.921-4.45-15.615,3.962-20.024c7.715-4.042,16.516-0.305,19.466,4.326
		c5.834-4.333,12.161-6.508,17.714-5.039c9.824,2.6,7.706,12.062,5.78,20.17C123.494,93.465,138.253,92.776,138.71,106.805z"/>
	<path fill-rule="evenodd" clip-rule="evenodd" fill="#FFFFFF" d="M99.591,87.024c-10.829,0.108-20.342,9.968-20.017,20.74
		c0.333,10.991,9.886,20.052,20.922,19.849c10.883-0.199,20.387-10.027,20.063-20.751C120.234,96.064,110.56,86.915,99.591,87.024z"
		/>
</g>
</svg>
