<?xml version="1.0" encoding="utf-8"?>
<!-- Generator: Adobe Illustrator 16.0.0, SVG Export Plug-In . SVG Version: 6.00 Build 0)  -->
<!DOCTYPE svg PUBLIC "-//W3C//DTD SVG 1.1//EN" "http://www.w3.org/Graphics/SVG/1.1/DTD/svg11.dtd">
<svg version="1.1" id="Layer_1" xmlns="http://www.w3.org/2000/svg" xmlns:xlink="http://www.w3.org/1999/xlink" x="0px" y="0px"
	 width="100%" height="100%" viewBox="0 0 200 200" enable-background="new 0 0 200 200" xml:space="preserve">
<path fill-rule="evenodd" clip-rule="evenodd" fill="#FDFCF0" d="M51.363,116.675c5.291-1.454,8.747-6.18,12.261-9.71
	c16.25-16.333,35.61-28.191,54.871-40.305c12.24-7.699,24.401-15.586,34.22-26.405c6.252-6.889,11.202-14.627,13.623-23.769
	c1.903-7.19,6.506-9.301,13.304-6.799c7.262,2.675,9.269,7.563,5.809,14.508c-4.06,8.147-10.852,14.071-17.226,20.288
	c-9.487,9.25-9.913,12.27-3.255,23.915c3.189,5.579,7.199,10.714,8.942,17.08c5.88,21.469-1.765,41.268-21.145,55.593
	c-17.354,12.83-37.659,15.826-58.22,18.156c-14.359,1.63-28.727,3.187-42.267,8.767c-8.681,3.576-16.045,8.982-22.331,15.927
	c-2.201,2.433-4.868,3.98-8.186,2.547c-3.015-1.302-3.186-4.104-3.247-7.003c-0.519-25.19-2.508-50.325,0.142-75.572
	C22.939,63.091,52.63,36.802,92.74,39.282c5.554,0.342,11.015,1.226,16.039,3.797c7.218,3.694,7.41,6.503,0.66,10.795
	c-6.995,4.449-14.362,8.365-21.082,13.19c-16.532,11.871-29.191,27.039-37.289,45.851C50.579,114.053,49.84,115.072,51.363,116.675z
	"/>
</svg>
