<?xml version="1.0" encoding="utf-8"?>
<!-- Generator: Adobe Illustrator 16.0.0, SVG Export Plug-In . SVG Version: 6.00 Build 0)  -->
<!DOCTYPE svg PUBLIC "-//W3C//DTD SVG 1.1//EN" "http://www.w3.org/Graphics/SVG/1.1/DTD/svg11.dtd">
<svg version="1.1" id="Layer_1" xmlns="http://www.w3.org/2000/svg" xmlns:xlink="http://www.w3.org/1999/xlink" x="0px" y="0px"
	 width="100%" height="100%" viewBox="0 0 200 200" enable-background="new 0 0 200 200" xml:space="preserve">
<g>
	<path fill-rule="evenodd" clip-rule="evenodd" fill="#FFFFFF" d="M129.28,135.247c-7.91-9.049-16.931-17.116-25.324-25.755
		c-4.978-5.126-9.566-5.562-14.747-0.276c-11.729,11.969-23.532,23.871-35.499,35.603c-4.099,4.02-4.528,7.665,0.125,11.052
		c8.925,6.495,11.371,14.933,8.546,25.323c-0.296,1.089,0.231,2.403,0.411,3.892c13.998,0,27.494,0,42.065,0
		c0-5.93,0.182-10.891-0.039-15.836c-0.332-7.307,4.426-9.691,10.278-10.325c6.135-0.662,10.721,4.066,10.875,10.526
		c0.122,5.134,0.023,10.273,0.023,15.396c5.467,0,9.749,0,14.478,0c-1.086-11.866-1.433-23.157-3.412-34.154
		C136.072,145.211,132.987,139.488,129.28,135.247z"/>
	<path fill-rule="evenodd" clip-rule="evenodd" fill="#FFFFFF" d="M100.221,80.473c4.127,3.416,8.049,3.758,11.84-0.003
		c12.642-12.542,25.321-25.057,37.546-37.996c1.507-1.594,1.64-6.759,0.23-8.444c-6.009-7.178-12.836-13.671-20.38-21.464
		c-11.454,15.718-21.927,30.068-32.378,44.438C87.688,69.918,87.801,70.193,100.221,80.473z"/>
	<path fill-rule="evenodd" clip-rule="evenodd" fill="#FFFFFF" d="M138.516,90.168c-12.938-9.461-12.837-9.382-23.293,2.707
		c-3.79,4.38-3.95,8.427-0.024,12.411c12.458,12.644,25.057,25.15,37.561,37.747c2.929,2.95,5.645,3.192,8.745,0.183
		c6.728-6.531,13.579-12.937,21.555-20.507C167.071,111.03,152.787,100.606,138.516,90.168z"/>
	<path fill-rule="evenodd" clip-rule="evenodd" fill="#FFFFFF" d="M87.633,95.229c3.546-3.984,3.733-7.926-0.061-11.755
		C74.899,70.687,62.28,57.842,49.317,45.356c-1.398-1.346-5.928-1.661-7.264-0.482c-7.379,6.513-14.218,13.637-21.956,21.253
		c19.028,13.919,37.057,27.106,56.792,41.543C80.831,103.097,84.176,99.113,87.633,95.229z"/>
</g>
</svg>
