<?xml version="1.0" encoding="utf-8"?>
<!-- Generator: Adobe Illustrator 16.0.0, SVG Export Plug-In . SVG Version: 6.00 Build 0)  -->
<!DOCTYPE svg PUBLIC "-//W3C//DTD SVG 1.1//EN" "http://www.w3.org/Graphics/SVG/1.1/DTD/svg11.dtd">
<svg version="1.1" id="Layer_1" xmlns="http://www.w3.org/2000/svg" xmlns:xlink="http://www.w3.org/1999/xlink" x="0px" y="0px"
	 width="100%" height="100%" viewBox="0 0 200 200" enable-background="new 0 0 200 200" xml:space="preserve">
<g>
	<path fill-rule="evenodd" clip-rule="evenodd" fill="#FFFFFF" d="M151.939,36.854c4.48-6.924,2.658-11.991-3.974-15.135
		c-8.608-4.083-17.45-7.986-26.583-10.58c-12.019-3.415-15.771-0.18-15.831,12.175c-0.118,25.061-0.035,50.123-0.037,75.187
		c-0.002,25.747-0.113,51.495,0.046,77.245c0.07,11.222,4.117,15.036,14.538,11.479c12.154-4.149,23.795-10.007,35.248-15.914
		c6.451-3.328,6.673-8.973,2.164-14.686C127.071,118.037,125.297,78.045,151.939,36.854z"/>
	<path fill-rule="evenodd" clip-rule="evenodd" fill="#FFFFFF" d="M91.566,20.84C91.51,11.437,87.518,7.916,78.75,10.798
		C68.764,14.078,59.1,18.55,49.688,23.282c-6.145,3.089-7.453,8.157-3.415,14.579c25.321,40.267,23.743,79.492-5.118,117.433
		c-4.394,5.773-4.212,11.302,1.965,14.871c10.597,6.128,21.331,12.37,32.722,16.672c11.756,4.44,15.731,0.842,15.766-11.579
		c0.071-25.391,0.021-50.785,0.017-76.181C91.621,73,91.724,46.918,91.566,20.84z"/>
	<path fill-rule="evenodd" clip-rule="evenodd" fill="#FFFFFF" d="M173.456,48.261c-0.002,0.002-0.005,0.004-0.005,0.005
		c-4.523-4.126-8.783-3.031-13.185,3.322c-17.195,24.816-15.561,64.971,3.62,88.822c6.371,7.925,12.439,8.066,16.295-1.176
		C214.391,79.266,173.456,48.261,173.456,48.261z"/>
	<path fill-rule="evenodd" clip-rule="evenodd" fill="#FFFFFF" d="M39.306,50.298c-4.4-6.353-8.661-7.448-13.185-3.322
		c0,0-0.002-0.002-0.002-0.005c0,0-40.936,31.005-6.728,90.974c3.855,9.243,9.923,9.102,16.295,1.176
		C54.867,115.27,56.502,75.116,39.306,50.298z"/>
</g>
</svg>
