<?xml version="1.0" standalone="no"?>
<!DOCTYPE svg PUBLIC "-//W3C//DTD SVG 20010904//EN"
 "http://www.w3.org/TR/2001/REC-SVG-20010904/DTD/svg10.dtd">
<svg version="1.0" xmlns="http://www.w3.org/2000/svg"
 width="3333.000000pt" height="3333.000000pt" viewBox="0 0 3333.000000 3333.000000"
 preserveAspectRatio="xMidYMid meet">
<metadata>
Created by potrace 1.11, written by Peter Selinger 2001-2013
</metadata>
<g transform="translate(0.000000,3333.000000) scale(0.100000,-0.100000)"
fill="#000000" stroke="none">
<path d="M4902 29710 c-614 -1119 -1082 -2076 -1384 -2830 -293 -732 -402
-1207 -340 -1486 99 -445 512 -1053 1257 -1854 311 -334 892 -899 1264 -1229
l115 -101 978 0 c861 0 979 2 984 15 5 13 1280 15 11391 15 l11386 0 -7 73
c-108 1163 -286 2560 -462 3612 -357 2140 -753 3436 -1192 3908 l-45 47
-11926 0 -11926 -1 -93 -169z m4438 -1660 c415 -7 462 -10 535 -29 219 -57
395 -198 485 -387 58 -120 60 -145 60 -760 0 -526 -1 -566 -20 -638 -31 -122
-82 -208 -180 -306 -95 -95 -190 -152 -320 -192 l-75 -23 -1957 -3 -1958 -2
-62 21 c-85 28 -164 74 -216 127 -82 81 -106 181 -78 321 19 92 156 459 402
1074 127 319 165 424 173 482 14 97 42 155 103 210 98 88 185 105 593 115 337
9 1787 3 2515 -10z m18040 -686 c114 -54 185 -136 232 -265 l23 -64 0 -1575
c0 -1507 -1 -1578 -19 -1643 -34 -124 -124 -234 -235 -286 l-56 -26 -1490 0
-1490 0 -57 27 c-105 49 -187 144 -227 266 -21 62 -21 62 -19 1670 l3 1607 37
77 c57 119 143 196 263 234 32 10 341 12 1505 11 l1465 -2 65 -31z"/>
<path d="M8695 21349 c-66 -5 -156 -16 -200 -25 -328 -65 -539 -282 -598 -614
-10 -53 -195 -550 -629 -1690 -1141 -2990 -1078 -2819 -1097 -2991 -45 -402
200 -715 648 -830 71 -18 130 -19 1455 -19 1515 0 1474 -1 1658 60 168 56 319
150 444 274 130 131 213 270 272 456 l27 85 3 2170 c3 2405 7 2232 -62 2417
-136 362 -494 639 -888 687 -243 30 -747 40 -1033 20z m820 -394 c212 -16 283
-33 405 -96 138 -71 242 -175 305 -304 70 -142 65 33 65 -2293 0 -2337 5
-2151 -68 -2302 -28 -58 -57 -95 -127 -165 -100 -100 -190 -155 -325 -197
l-75 -23 -1383 -3 -1383 -2 -70 24 c-145 51 -252 140 -285 238 -25 75 -15 207
24 318 38 108 322 857 1075 2830 506 1327 602 1587 609 1650 5 41 18 94 28
116 39 91 138 166 255 193 131 31 645 39 950 16z"/>
<path d="M13762 21335 c-442 -80 -783 -388 -895 -809 l-22 -81 0 -2170 0
-2170 22 -88 c48 -187 130 -333 266 -474 49 -50 122 -114 162 -142 146 -101
337 -176 509 -200 53 -8 785 -11 2344 -11 2493 0 2355 -3 2546 61 361 121 625
396 724 757 l27 97 0 2150 c0 1805 -2 2161 -14 2220 -88 438 -448 780 -905
860 -78 13 -362 15 -2390 14 -1857 -1 -2315 -3 -2374 -14z m4716 -391 c259
-53 461 -224 546 -463 l31 -86 3 -2080 c3 -2299 6 -2179 -61 -2318 -90 -189
-249 -321 -467 -389 l-75 -23 -2265 -3 c-1686 -2 -2284 0 -2340 9 -165 25
-311 99 -425 214 -80 81 -125 151 -163 257 l-27 73 -3 2102 c-3 2348 -8 2176
69 2332 70 141 216 272 376 336 139 56 8 53 2461 54 2025 1 2271 -1 2340 -15z"/>
<path d="M1134 12708 c40 -1006 170 -2757 272 -3668 l35 -315 -1 -1012 -1
-1013 1313 0 1313 0 0 -297 c0 -320 9 -418 61 -653 153 -688 533 -1293 1091
-1737 427 -339 943 -555 1510 -629 245 -33 623 -23 888 22 1042 180 1929 905
2313 1891 167 428 241 938 196 1356 l-5 47 5345 0 5345 0 -6 -192 c-32 -1046
452 -2009 1312 -2609 176 -123 458 -270 655 -343 369 -135 672 -189 1065 -190
250 0 346 8 571 50 429 78 902 285 1246 545 591 446 994 1064 1153 1769 56
246 69 375 69 683 l1 287 1778 0 1777 0 0 508 0 509 40 96 c80 190 83 220 85
672 2 412 7 504 51 855 44 357 131 801 226 1159 l41 154 668 1114 668 1113
-15541 0 -15541 0 7 -172z m5221 -4604 c70 -18 188 -71 260 -116 147 -94 359
-281 481 -429 l59 -70 18 23 c290 365 603 543 922 525 123 -7 193 -26 313 -82
205 -97 311 -268 312 -501 0 -205 -99 -504 -254 -768 -31 -52 -56 -97 -56
-100 0 -2 32 -35 71 -73 133 -128 239 -288 290 -438 20 -59 24 -89 24 -195 -1
-109 -4 -133 -27 -192 -37 -99 -84 -172 -162 -255 -112 -119 -244 -191 -419
-229 -80 -17 -273 -23 -354 -11 l-53 8 0 -30 c0 -49 -38 -155 -78 -217 -75
-116 -200 -200 -368 -246 -67 -18 -107 -22 -264 -22 -165 -1 -194 2 -265 22
-120 35 -210 86 -290 167 -103 102 -179 260 -200 413 -6 43 -10 52 -23 48
-256 -78 -485 -52 -652 73 -107 80 -195 208 -234 340 -47 159 12 343 162 502
82 88 198 179 296 234 l65 36 -29 70 c-81 195 -156 466 -186 669 -23 158 -16
385 16 485 49 156 135 267 252 326 117 59 231 69 373 33z m16765 -6 c218 -66
470 -254 718 -535 l64 -72 45 57 c138 173 311 317 478 397 127 62 205 83 327
92 163 11 347 -38 483 -128 110 -74 177 -168 210 -296 20 -75 19 -239 -1 -343
-31 -166 -127 -404 -237 -590 l-56 -95 89 -90 c150 -151 245 -301 286 -455 27
-102 24 -247 -9 -338 -90 -255 -303 -437 -582 -498 -84 -18 -300 -24 -366 -11
l-36 7 -12 -62 c-41 -210 -201 -364 -446 -429 -104 -27 -323 -37 -432 -19 -97
15 -201 52 -274 96 -83 50 -187 164 -231 254 -40 82 -78 206 -78 257 0 17 -4
34 -8 37 -4 2 -39 -4 -77 -15 -100 -28 -261 -35 -355 -15 -240 51 -436 253
-480 496 -22 124 27 275 133 408 63 80 207 200 316 266 64 37 81 52 76 65
-280 686 -296 1222 -41 1458 134 124 305 159 496 101z"/>
</g>
</svg>
